<?xml version="1.0" standalone="no"?>
<!DOCTYPE svg PUBLIC "-//W3C//DTD SVG 20010904//EN"
 "http://www.w3.org/TR/2001/REC-SVG-20010904/DTD/svg10.dtd">
<svg version="1.0" xmlns="http://www.w3.org/2000/svg"
 width="320.000000pt" height="305.000000pt" viewBox="0 0 320.000000 305.000000"
 preserveAspectRatio="xMidYMid meet">

<g transform="translate(0.000000,305.000000) scale(0.100000,-0.100000)"
fill="#000000" stroke="none">
<path d="M70 2960 c0 -11 -7 -20 -15 -20 -8 0 -15 -9 -15 -20 0 -11 7 -20 15
-20 8 0 15 -7 15 -15 0 -12 17 -15 95 -15 88 0 95 -1 95 -20 0 -19 7 -20 145
-20 l145 0 0 -55 c0 -48 2 -55 20 -55 19 0 20 -7 20 -90 0 -83 1 -90 20 -90
18 0 20 -7 20 -75 0 -60 3 -75 15 -75 12 0 15 -15 15 -75 0 -68 2 -75 20 -75
18 0 20 -7 20 -75 0 -68 2 -75 20 -75 19 0 20 -7 20 -90 0 -73 3 -90 15 -90
12 0 15 -15 15 -75 0 -68 2 -75 20 -75 18 0 20 -7 20 -70 0 -63 2 -70 20 -70
19 0 20 -7 20 -95 0 -78 3 -95 15 -95 12 0 15 -14 15 -70 0 -63 2 -70 20 -70
18 0 20 -7 20 -75 0 -68 2 -75 20 -75 19 0 20 -7 20 -90 0 -73 3 -90 15 -90
12 0 15 -15 15 -75 0 -68 2 -75 20 -75 18 0 20 -7 20 -55 0 -48 2 -55 20 -55
13 0 20 -7 20 -20 0 -11 7 -20 15 -20 8 0 15 -9 15 -20 0 -17 7 -20 40 -20 29
0 40 -4 40 -15 0 -13 101 -15 845 -15 744 0 845 2 845 15 0 8 9 15 20 15 17 0
20 7 20 40 0 33 -3 40 -20 40 -11 0 -20 7 -20 15 0 13 -101 15 -845 15 -838 0
-845 0 -845 20 0 13 -7 20 -20 20 -18 0 -20 7 -20 75 0 68 -2 75 -20 75 -13 0
-20 7 -20 20 0 13 7 20 20 20 11 0 20 7 20 15 0 13 99 15 830 15 823 0 830 0
830 20 0 11 7 20 15 20 8 0 15 9 15 20 0 13 7 20 20 20 11 0 20 7 20 15 0 8 9
15 20 15 19 0 20 7 20 95 0 78 3 95 15 95 12 0 15 17 15 90 0 83 1 90 20 90
19 0 20 7 20 90 0 83 1 90 20 90 19 0 20 7 20 95 0 78 3 95 15 95 12 0 15 17
15 90 0 83 1 90 20 90 19 0 20 7 20 90 0 83 1 90 20 90 19 0 20 7 20 170 0
163 -1 170 -20 170 -11 0 -20 7 -20 15 0 8 -9 15 -20 15 -13 0 -20 7 -20 20 0
11 -7 20 -15 20 -8 0 -15 9 -15 20 0 17 -7 20 -40 20 -33 0 -40 -3 -40 -20 0
-11 -7 -20 -15 -20 -10 0 -15 -11 -15 -35 0 -24 5 -35 15 -35 8 0 15 -9 15
-20 0 -13 7 -20 20 -20 13 0 20 -7 20 -20 0 -13 7 -20 20 -20 18 0 20 -7 20
-70 0 -63 -2 -70 -20 -70 -17 0 -20 -7 -20 -40 l0 -40 -995 0 c-988 0 -995 0
-995 -20 0 -11 -7 -20 -15 -20 -8 0 -15 -7 -15 -15 0 -8 7 -15 15 -15 8 0 15
-9 15 -20 0 -20 7 -20 975 -20 l975 0 0 -90 c0 -73 -3 -90 -15 -90 -12 0 -15
-17 -15 -95 0 -88 -1 -95 -20 -95 -19 0 -20 -7 -20 -90 0 -83 -1 -90 -20 -90
-19 0 -20 -7 -20 -90 0 -73 -3 -90 -15 -90 -12 0 -15 -17 -15 -95 0 -88 -1
-95 -20 -95 -16 0 -20 -7 -20 -35 l0 -35 -845 0 -845 0 0 55 c0 48 -2 55 -20
55 -18 0 -20 7 -20 75 0 68 -2 75 -20 75 -18 0 -20 7 -20 70 0 56 -3 70 -15
70 -12 0 -15 15 -15 75 0 68 -2 75 -20 75 -19 0 -20 7 -20 90 0 83 -1 90 -20
90 -18 0 -20 7 -20 75 0 60 -3 75 -15 75 -12 0 -15 15 -15 75 0 68 -2 75 -20
75 -19 0 -20 7 -20 90 0 83 -1 90 -20 90 -18 0 -20 7 -20 75 0 60 -3 75 -15
75 -12 0 -15 15 -15 75 0 68 -2 75 -20 75 -19 0 -20 7 -20 90 0 83 -1 90 -20
90 -13 0 -20 7 -20 20 0 11 -7 20 -15 20 -8 0 -15 7 -15 15 0 8 -9 15 -20 15
-13 0 -20 7 -20 20 0 13 -7 20 -20 20 -13 0 -20 7 -20 20 0 19 -7 20 -240 20
-233 0 -240 -1 -240 -20z"/>
<path d="M1290 495 c0 -11 -11 -15 -40 -15 -33 0 -40 -3 -40 -20 0 -11 -7 -20
-15 -20 -8 0 -15 -9 -15 -20 0 -13 -7 -20 -20 -20 -16 0 -20 -7 -20 -35 0 -28
-4 -35 -20 -35 -18 0 -20 -7 -20 -75 0 -68 2 -75 20 -75 11 0 20 -7 20 -15 0
-8 9 -15 20 -15 13 0 20 -7 20 -20 0 -11 7 -20 15 -20 8 0 15 -9 15 -20 0 -17
7 -20 40 -20 29 0 40 -4 40 -15 0 -12 14 -15 70 -15 56 0 70 3 70 15 0 8 9 15
20 15 13 0 20 7 20 20 0 13 7 20 20 20 13 0 20 7 20 20 0 11 7 20 15 20 8 0
15 7 15 15 0 8 9 15 20 15 19 0 20 7 20 95 0 88 -1 95 -20 95 -11 0 -20 7 -20
15 0 8 -7 15 -15 15 -8 0 -15 9 -15 20 0 13 -7 20 -20 20 -13 0 -20 7 -20 20
0 16 -7 20 -35 20 -24 0 -35 5 -35 15 0 12 -13 15 -55 15 -42 0 -55 -3 -55
-15z m70 -145 c0 -16 7 -20 35 -20 l35 0 0 -69 c0 -78 -3 -81 -92 -81 -41 0
-48 3 -48 20 0 13 -7 20 -20 20 -16 0 -20 7 -20 35 0 28 4 35 20 35 13 0 20 7
20 20 0 11 7 20 15 20 8 0 15 9 15 20 0 13 7 20 20 20 13 0 20 -7 20 -20z"/>
<path d="M2500 495 c0 -8 -9 -15 -20 -15 -13 0 -20 -7 -20 -20 0 -11 -7 -20
-15 -20 -8 0 -15 -9 -15 -20 0 -13 -7 -20 -20 -20 -11 0 -20 -7 -20 -15 0 -8
-9 -15 -20 -15 -19 0 -20 -7 -20 -95 0 -88 1 -95 20 -95 11 0 20 -7 20 -15 0
-8 9 -15 20 -15 13 0 20 -7 20 -20 0 -11 7 -20 15 -20 8 0 15 -9 15 -20 0 -13
7 -20 20 -20 11 0 20 -7 20 -15 0 -12 17 -15 95 -15 78 0 95 3 95 15 0 8 7 15
15 15 8 0 15 9 15 20 0 13 7 20 20 20 13 0 20 7 20 20 0 13 7 20 20 20 16 0
20 7 20 35 0 24 5 35 15 35 10 0 15 11 15 35 0 24 -5 35 -15 35 -11 0 -15 11
-15 40 0 33 -3 40 -20 40 -16 0 -20 7 -20 35 0 28 -4 35 -20 35 -13 0 -20 7
-20 20 0 16 -7 20 -35 20 -24 0 -35 5 -35 15 0 12 -15 15 -75 15 -60 0 -75 -3
-75 -15z m110 -145 c0 -13 7 -20 20 -20 13 0 20 -7 20 -20 0 -13 7 -20 20 -20
11 0 20 -7 20 -15 0 -8 -9 -15 -20 -15 -17 0 -20 -7 -20 -40 l0 -40 -55 0
c-48 0 -55 2 -55 20 0 13 -7 20 -20 20 -18 0 -20 7 -20 55 0 48 2 55 20 55 13
0 20 7 20 20 0 16 7 20 35 20 28 0 35 -4 35 -20z"/>
</g>
</svg>
